<?xml version="1.0" encoding="utf-8"?>
<!-- Generator: Adobe Illustrator 16.0.0, SVG Export Plug-In . SVG Version: 6.00 Build 0)  -->
<!DOCTYPE svg PUBLIC "-//W3C//DTD SVG 1.1//EN" "http://www.w3.org/Graphics/SVG/1.1/DTD/svg11.dtd">
<svg version="1.1" id="图层_1" xmlns="http://www.w3.org/2000/svg" xmlns:xlink="http://www.w3.org/1999/xlink" x="0px" y="0px"
	 width="237.169px" height="214.082px" viewBox="0 0 237.169 214.082" enable-background="new 0 0 237.169 214.082"
	 xml:space="preserve">
<path fill-rule="evenodd" clip-rule="evenodd" fill="none" d="M64.554,61c-0.187-38.16,33.788-58.769,69-61
	c-9.107,44.056,17.616,23.397,29,43c1.333,5.666,2.667,11.334,4,17c4,0.333,8,0.667,12,1c19.128,5.664,23.637,18.507,19,40
	c34.386,4.281,51.756,39.375,30,70c-18.32,25.788-55.944,34.925-94,41c-52.481,8.378-104.669-9.445-123-37
	c-16.677-25.068-15.628-69.244,18-75C27.934,76.219,41.403,60.829,64.554,61z"/>
</svg>
